P2
# Generated by OpenCV 3.4.2
64 64
255
   0   0   0   0 255 255 255 255 255 255 255 255 255 255 255 255 255 255 255 255 255 255 255 255 255 255 255 255 255 255 255 255 255 255 255 255 255 255 255 255 255 255 255 255 255 255 255 255 255 255 255 255 255 255 255 255 255 255 255 255   0   0   0   0
   0   0   0 255 255 255 255 255   0   0   0   0   0   0   0   0   0   0   0   0   0   0   0   0   0   0   0   0   0   0   0   0   0   0   0   0   0   0   0   0   0   0   0   0   0   0   0   0   0   0   0   0   0   0   0   0 255 255 255 255 255   0   0   0
   0   0 255 255 255 255   0   0   0   0   0   0   0   0   0   0   0   0   0   0   0   0   0   0   0   0   0   0   0   0   0   0   0   0   0   0   0   0   0   0   0   0   0   0   0   0   0   0   0   0   0   0   0   0   0   0   0   0 255 255 255 255   0   0
   0 255 255 255 255   0   0   0   0   0   0   0   0   0   0   0   0   0   0   0   0   0   0   0   0   0   0   0   0   0   0   0   0   0   0   0   0   0   0   0   0   0   0   0   0   0   0   0   0   0   0   0   0   0   0   0   0   0   0 255 255 255 255   0
   0 255 255 255   0   0   0   0   0   0   0   0   0   0   0   0   0   0   0   0   0   0   0   0   0   0   0   0   0   0   0   0   0   0   0   0   0   0   0   0   0   0   0   0   0   0   0   0   0   0   0   0   0   0   0   0   0   0   0   0 255 255 255   0
 255 255 255   0   0   0   0   0   0   0   0   0   0   0   0   0   0   0   0   0   0   0   0   0   0   0   0   0   0   0   0   0   0   0   0   0   0   0   0   0   0   0   0   0   0   0   0   0   0   0   0   0   0   0   0   0   0   0   0   0   0 255 255 255
 255 255 255   0   0   0   0   0   0   0   0   0   0   0   0   0   0   0   0   0   0   0   0   0   0   0   0   0   0   0   0   0   0   0   0   0   0   0   0   0   0   0   0   0   0   0   0   0   0   0   0   0   0   0   0   0   0   0   0   0   0 255 255 255
 255 255   0   0   0   0   0   0   0   0   0   0   0   0   0   0   0   0   0   0   0   0   0 255 255 255 255 255 255 255 255 255 255 255 255 255 255 255 255 255 255 255 255 255 255 255 255 255 255   0   0   0   0   0   0   0   0   0   0   0   0   0 255 255
 255 255 255   0   0   0   0   0   0   0   0   0 255 255   0   0   0   0   0   0   0   0   0   0   0   0   0   0   0   0   0   0   0   0   0   0   0   0   0   0   0   0   0   0   0   0   0   0   0   0 255 255   0   0   0   0   0   0   0   0   0 255 255 255
 255 255   0   0   0   0   0   0   0   0   0 255   0   0   0   0   0   0   0   0   0   0   0   0   0 255 255 255   0   0   0   0   0   0   0   0   0   0   0   0   0   0   0   0   0   0   0   0   0   0   0   0 255   0   0   0   0   0   0   0   0   0 255 255
 255 255   0   0   0   0   0   0   0   0 255   0   0   0   0   0   0   0   0   0   0   0 255 255 255 255 255 255 255 255 255   0   0   0   0   0   0   0 255 255 255   0   0   0   0   0   0   0   0   0   0   0   0 255   0   0   0   0   0   0   0   0 255 255
 255 255   0   0   0   0   0   0   0 255   0   0   0   0   0   0   0   0   0   0 255 255 255 255   0   0   0   0   0 255 255 255   0   0   0   0 255 255 255 255 255 255 255   0   0   0   0   0   0   0   0   0   0   0 255   0   0   0   0   0   0   0 255 255
 255 255   0   0   0   0   0   0   0 255   0   0   0   0   0   0   0   0   0 255 255 255   0 255 255 255 255 255 255   0 255 255   0   0   0 255 255 255   0   0   0 255 255 255 255   0   0   0   0   0   0   0   0   0 255   0   0   0   0   0   0   0 255 255
 255 255   0   0   0   0   0   0   0   0   0   0   0   0   0   0   0   0   0 255 255   0 255 255   0   0   0   0   0 255   0 255 255   0 255 255   0 255 255 255 255 255   0 255 255 255   0   0   0   0   0   0   0   0   0   0   0   0   0   0   0   0 255 255
 255 255   0   0   0   0   0   0   0   0   0   0   0   0   0   0   0   0 255 255   0 255   0   0   0   0   0   0   0   0 255 255 255 255 255   0 255   0   0   0   0   0 255   0 255 255 255   0   0   0   0   0   0   0   0   0   0   0   0   0   0   0 255 255
 255 255   0   0   0   0   0   0   0   0   0   0   0   0   0   0   0   0 255 255   0 255   0   0   0   0   0   0   0   0 255   0 255 255   0 255   0   0   0   0   0   0   0 255   0 255 255   0   0   0   0   0   0   0   0   0   0   0   0   0   0   0 255 255
 255 255   0   0   0   0   0   0   0   0   0   0   0   0   0   0   0   0 255 255   0 255   0   0   0   0   0   0   0   0   0   0   0   0 255   0   0   0   0   0   0   0   0   0 255   0 255   0   0   0   0   0   0   0   0   0   0   0   0   0   0   0 255 255
 255 255   0   0   0   0   0   0   0   0   0   0   0   0   0   0   0   0 255 255   0 255   0   0   0   0   0   0   0   0   0 255   0 255   0   0   0   0   0   0   0   0   0   0 255   0 255 255   0   0   0   0   0   0   0   0   0   0   0   0   0   0 255 255
 255 255   0   0   0   0   0   0   0   0   0   0   0   0   0   0   0   0 255 255   0 255   0   0   0   0   0   0   0   0   0 255   0 255   0   0   0   0   0   0   0   0   0   0 255   0 255 255   0   0   0   0   0   0   0   0   0   0   0   0   0   0 255 255
 255 255   0   0   0   0   0   0   0   0   0   0   0   0   0   0   0 255   0 255 255 255   0   0   0   0   0   0 255 255 255 255   0 255   0   0   0   0   0   0   0   0   0   0 255   0 255 255   0   0   0   0   0   0   0   0   0   0   0   0   0   0 255 255
 255 255   0   0   0   0   0   0   0   0   0   0   0 255 255 255 255 255 255 255 255 255   0   0   0   0 255 255   0   0 255 255 255   0   0 255 255   0   0   0   0   0   0 255 255 255 255   0   0   0   0   0   0   0   0   0   0   0   0   0   0   0 255 255
 255 255   0   0   0   0   0   0   0   0   0   0 255 255 255 255   0   0   0   0   0   0 255   0   0 255 255   0 255 255 255 255 255 255 255   0   0 255   0   0   0   0   0 255   0 255 255   0   0   0   0   0   0   0   0   0   0   0   0   0   0   0 255 255
 255 255   0   0   0   0   0   0   0   0   0 255 255   0 255 255 255 255 255 255 255 255   0   0   0   0 255 255 255 255   0   0   0   0 255 255 255   0 255   0   0   0 255   0 255 255   0   0   0   0   0   0   0   0   0   0   0   0   0   0   0   0 255 255
 255 255   0   0   0   0   0   0   0   0   0 255   0 255 255   0   0   0   0   0   0 255   0   0   0 255 255 255   0   0   0   0   0   0   0 255 255 255   0   0   0 255   0   0 255 255 255 255   0   0   0   0   0   0   0   0   0   0   0   0   0   0 255 255
 255 255   0   0   0   0   0   0   0   0 255 255   0 255   0   0   0   0   0   0   0   0 255   0 255 255 255   0   0   0   0   0   0   0   0   0 255 255 255   0 255   0   0   0 255 255 255 255 255 255   0   0   0   0   0   0   0   0   0   0   0   0 255 255
 255 255   0   0   0   0   0   0   0 255 255 255 255 255   0   0   0   0   0   0   0   0 255   0 255 255   0   0   0   0   0   0   0   0   0   0   0 255 255   0   0 255 255 255 255 255 255   0 255 255 255 255   0   0   0   0   0   0   0   0   0   0 255 255
 255 255   0   0   0   0   0   0   0 255 255   0 255   0   0   0   0   0   0   0   0   0 255   0 255 255   0   0   0   0   0   0   0   0   0   0   0   0 255 255 255 255 255 255 255 255 255 255 255   0 255 255   0   0   0   0   0   0   0   0   0   0 255 255
 255 255   0   0   0   0   0   0   0 255 255   0 255   0   0   0   0   0   0   0   0   0 255   0 255   0   0   0   0   0   0   0   0   0   0   0   0   0 255 255 255   0   0   0   0   0   0   0 255 255   0 255 255   0   0   0   0   0   0   0   0   0 255 255
 255 255   0   0   0   0   0   0   0 255 255   0 255   0   0   0   0   0   0   0   0   0 255 255 255   0   0   0   0   0   0   0   0   0   0   0   0   0 255 255 255   0   0   0   0   0   0   0   0 255 255 255 255   0   0   0   0   0   0   0   0   0 255 255
 255 255   0   0   0   0   0   0   0 255 255 255 255 255   0   0   0   0   0   0   0   0 255 255 255   0   0   0   0   0   0   0   0   0   0   0   0   0 255 255 255   0   0   0   0   0   0   0   0   0 255   0 255   0   0   0   0   0   0   0   0   0 255 255
 255 255   0   0   0   0   0   0   0   0 255 255   0 255   0   0   0   0   0   0   0   0 255   0 255   0   0   0   0   0   0   0   0   0   0   0   0   0 255   0 255   0   0   0   0   0   0   0   0   0 255   0 255   0   0   0   0   0   0   0   0   0 255 255
 255 255   0   0   0   0   0   0   0   0   0 255 255 255 255 255 255   0   0   0   0 255 255   0 255 255   0   0   0   0   0   0   0   0   0   0   0 255 255   0 255   0   0   0   0   0   0   0   0   0 255   0 255   0   0   0   0   0   0   0   0   0 255 255
 255 255   0   0   0   0   0   0   0   0   0 255 255 255   0 255 255 255 255 255 255   0   0   0 255 255   0   0   0   0   0   0   0   0   0   0   0 255 255 255 255   0   0   0   0   0   0   0   0 255 255 255 255   0   0   0   0   0   0   0   0   0 255 255
 255 255   0   0   0   0   0   0   0   0   0   0 255 255 255 255   0   0   0   0   0 255 255 255   0 255 255   0   0   0   0   0   0   0   0   0 255 255   0 255   0   0   0   0   0   0   0   0   0 255 255 255 255   0   0   0   0   0   0   0   0   0 255 255
 255 255   0   0   0   0   0   0   0   0   0   0   0   0 255 255   0 255 255 255 255 255   0   0 255   0 255 255 255   0   0   0   0   0 255 255 255 255 255 255 255   0   0   0   0   0   0   0 255 255   0 255 255   0   0   0   0   0   0   0   0   0 255 255
 255 255   0   0   0   0   0   0   0   0   0   0   0   0 255 255   0 255   0   0   0   0   0   0 255 255   0 255 255 255 255 255 255 255 255 255   0   0   0 255   0   0 255 255 255 255 255 255 255   0 255 255   0   0   0   0   0   0   0   0   0 255 255 255
 255 255   0   0   0   0   0   0   0   0   0   0   0   0 255 255 255 255   0   0   0   0   0   0   0   0 255   0   0 255 255 255 255 255   0   0   0   0   0 255 255 255   0   0   0 255 255   0 255 255 255   0   0   0   0   0   0   0   0   0   0 255 255 255
 255 255   0   0   0   0   0   0   0   0   0   0   0 255 255   0 255   0   0   0   0   0   0   0   0   0   0 255   0   0   0   0   0   0 255   0   0   0   0   0 255 255 255 255 255 255 255 255 255 255 255   0   0   0   0   0   0   0   0   0 255 255 255 255
 255 255   0   0   0   0   0   0   0   0   0   0   0 255 255   0 255   0   0   0   0   0   0   0   0   0   0 255   0   0   0   0   0   0   0   0   0   0   0   0 255 255   0 255 255 255 255 255 255   0   0   0   0   0   0   0   0   0 255 255   0   0 255 255
 255 255   0   0   0   0   0   0   0   0   0   0   0 255 255   0 255   0   0   0   0   0   0   0   0   0 255 255   0   0   0   0   0   0   0   0   0   0   0 255 255 255   0   0   0   0 255 255   0   0   0   0   0   0   0   0   0 255 255   0   0   0 255 255
 255 255   0   0   0   0   0   0   0   0   0   0   0   0 255 255 255 255   0   0   0   0   0   0   0 255 255   0   0   0   0   0   0   0   0   0   0   0   0 255   0 255   0   0   0 255   0   0   0   0   0   0   0   0   0   0 255 255   0   0   0   0 255 255
 255 255   0   0   0   0   0   0   0   0   0   0   0   0 255 255   0 255 255   0   0   0   0   0 255 255   0 255   0   0   0   0   0   0   0   0   0   0   0 255   0 255   0   0 255   0   0   0   0   0   0   0   0   0   0 255 255   0   0   0   0   0 255 255
 255 255   0   0   0   0   0   0   0   0   0   0   0   0   0 255 255   0 255 255   0   0   0 255 255   0 255 255 255   0   0   0   0   0   0   0   0   0   0 255   0 255   0 255 255   0   0   0   0   0   0   0   0   0 255 255   0   0   0   0   0   0 255 255
 255 255   0   0   0   0   0   0   0   0   0   0   0   0   0 255 255 255   0 255 255 255 255 255   0 255 255 255 255   0   0   0   0   0   0   0   0   0   0 255 255 255 255 255   0   0   0   0   0   0   0   0   0 255 255   0   0   0   0   0   0   0 255 255
 255 255   0   0   0   0   0   0   0   0   0   0   0   0   0   0 255 255 255 255   0   0 255 255 255 255   0   0 255 255   0   0   0   0   0   0   0   0 255   0 255 255 255 255   0   0   0   0   0   0   0   0 255 255   0   0   0   0   0   0   0   0 255 255
 255 255   0   0   0   0   0   0   0 255   0   0   0   0   0   0   0   0 255 255 255 255 255 255 255   0   0   0 255 255 255   0 255   0   0 255 255 255   0 255 255   0 255   0   0   0   0   0   0   0   0 255 255   0   0   0   0   0   0   0   0   0 255 255
 255 255   0   0   0   0   0   0   0 255   0   0   0   0   0   0   0   0   0   0   0 255   0   0   0   0   0   0   0 255 255 255   0   0 255   0   0 255 255 255   0   0 255   0   0   0   0   0   0   0 255 255   0   0   0   0   0   0   0   0   0   0 255 255
 255 255   0   0   0   0   0   0   0   0 255   0   0   0   0   0   0   0   0   0   0   0   0   0   0   0   0   0   0   0 255 255 255 255 255 255 255 255 255   0   0   0 255   0   0   0   0   0   0 255 255   0   0   0   0   0   0   0   0   0   0   0 255 255
 255 255   0   0   0   0   0   0   0   0 255 255   0   0   0   0   0   0   0   0   0   0   0   0   0   0   0   0   0   0   0   0 255 255 255 255 255   0   0   0 255   0 255   0   0   0   0   0 255 255   0   0   0   0   0   0   0   0   0   0   0   0 255 255
 255 255 255   0   0   0   0   0   0   0   0   0 255 255   0   0   0   0   0   0   0   0   0   0   0   0   0   0   0   0   0   0   0   0   0   0   0   0   0   0 255   0 255   0   0   0   0 255 255   0   0   0   0   0   0   0   0   0   0   0   0 255 255 255
 255 255 255   0   0   0   0   0   0   0   0   0   0   0 255 255 255 255 255 255 255 255 255 255 255 255 255 255 255 255 255 255 255 255 255 255 255 255 255 255 255   0 255   0   0   0 255 255   0   0   0   0   0   0   0   0   0   0   0   0   0 255 255 255
 255 255 255   0   0   0   0   0   0   0   0   0   0   0   0   0   0   0   0   0   0   0   0   0   0   0   0   0   0   0   0   0   0   0   0   0   0   0   0   0 255   0 255   0   0 255 255   0   0   0   0   0   0   0   0   0   0   0   0   0   0 255 255 255
   0 255 255   0   0   0   0   0   0   0   0   0   0   0   0   0   0   0   0   0   0   0   0   0   0   0   0   0   0   0   0   0   0   0   0   0   0   0   0   0 255   0 255   0 255 255   0   0   0   0   0   0   0   0   0   0   0   0   0   0   0 255 255   0
   0 255 255 255   0   0   0   0   0   0   0   0   0   0   0   0   0   0   0   0   0   0   0   0   0   0   0   0   0   0   0   0   0   0   0   0   0   0   0   0 255   0   0 255 255   0   0   0   0   0   0   0   0   0   0   0   0   0   0   0 255 255 255   0
   0 255 255 255 255   0   0   0   0   0   0   0   0   0   0   0   0   0   0   0   0   0   0   0   0   0   0   0   0   0   0   0   0   0   0   0   0   0   0   0 255   0   0 255   0   0   0   0   0   0   0   0   0   0   0   0   0   0   0 255 255 255 255   0
   0 255 255 255 255 255   0   0   0   0   0   0   0   0   0   0   0   0   0   0   0   0   0   0   0   0   0   0   0   0   0   0   0   0   0   0   0   0   0   0 255   0   0   0   0   0   0   0   0   0   0   0   0   0   0   0   0   0 255 255 255 255 255   0
   0   0 255   0 255 255 255 255   0   0   0   0   0   0   0   0   0   0   0   0   0   0   0   0   0   0   0   0   0   0   0   0   0   0   0   0   0   0   0   0 255 255   0   0   0 255   0   0   0   0   0   0   0   0   0   0 255 255 255 255   0 255   0   0
   0   0 255 255   0 255 255 255 255 255 255 255 255 255 255 255 255 255 255 255 255 255 255 255 255 255 255 255 255 255 255 255 255 255 255 255 255 255 255 255 255 255   0   0   0   0   0   0 255 255 255 255 255 255 255 255 255 255   0   0 255 255   0   0
   0   0   0 255   0   0   0   0 255 255 255 255 255 255 255 255 255 255 255 255 255 255 255 255 255 255 255 255 255 255 255 255 255 255 255 255 255 255 255 255 255 255   0 255 255 255 255 255 255 255 255 255 255 255 255 255   0   0   0   0 255   0   0   0
   0   0   0   0 255 255   0   0   0   0   0   0   0 255 255 255 255   0   0   0   0   0   0   0   0   0   0   0   0   0   0   0   0   0   0   0   0   0   0   0   0   0   0   0   0 255 255 255   0   0   0   0   0   0   0 255   0 255 255 255   0   0   0   0
   0   0   0   0   0 255 255 255   0   0   0   0   0   0   0   0   0   0   0   0   0   0   0   0   0   0   0   0   0   0   0   0   0   0   0   0   0   0   0   0   0   0   0   0   0   0   0   0   0   0   0   0   0   0   0   0 255 255 255   0   0   0   0   0
   0   0   0   0   0   0 255 255 255   0   0   0   0   0   0   0   0   0   0   0   0   0   0   0   0   0   0   0   0   0   0   0   0   0   0   0   0   0   0   0   0   0   0   0   0   0   0   0   0   0   0   0   0   0   0 255 255 255   0   0   0   0   0   0
   0   0   0   0   0   0   0   0   0   0   0   0   0   0   0   0   0   0   0   0   0   0   0   0   0   0 255 255 255 255 255 255 255 255 255   0   0   0   0   0   0   0   0   0   0   0   0   0   0   0   0   0   0   0   0   0   0   0   0   0   0   0   0   0
   0   0   0   0   0   0   0   0   0   0   0   0   0   0   0   0   0   0   0   0   0   0   0   0   0   0   0   0   0   0   0   0   0   0   0   0   0   0   0   0   0   0   0   0   0   0   0   0   0   0   0   0   0   0   0   0   0   0   0   0   0   0   0   0
